<svg width="140" height="140" viewBox="0 0 140 140" fill="none" xmlns="http://www.w3.org/2000/svg">
    <g clip-path="url(#clip0_313_38)">
        <rect width="140" height="140" fill="url(#paint0_linear_313_38)" />
        <g clip-path="url(#clip1_313_38)">
            <g filter="url(#filter0_d_313_38)">
                <path
                    d="M110.871 63.4288C107.684 50.295 103.276 36.6117 87.5543 38.864C81.4809 39.7316 76.8865 43.3142 70.1166 43.3286C64.4525 43.3431 60.0231 39.746 54.8257 38.864C39.1038 36.1923 35.378 43.7734 30.8122 57.905C28.235 65.8944 19.9935 93.4455 29.3693 100.043C38.8597 106.728 49.2118 88.3373 56.3619 85.5391C62.5286 83.1171 75.8025 83.3232 81.8829 85.1742C90.1386 87.6864 98.2652 103.564 107.562 101.478C120.297 98.6115 112.795 71.3822 110.871 63.4288ZM51.4444 75.0334C44.5957 75.0334 39.0535 69.4481 39.0535 62.5575C39.0535 55.6634 44.5957 50.0743 51.4444 50.0743C58.2858 50.0743 63.8279 55.6634 63.8279 62.5575C63.8278 69.4481 58.2858 75.0334 51.4444 75.0334ZM90.0524 52.1822C91.4667 50.7541 93.7639 50.7541 95.1855 52.1822C96.5925 53.6066 96.5925 55.9166 95.1855 57.3448C93.7639 58.7726 91.4667 58.7726 90.0524 57.3448C88.6384 55.9166 88.6384 53.6066 90.0524 52.1822ZM83.1536 64.2892C81.7393 62.8684 81.7393 60.5584 83.1536 59.1269C84.568 57.7062 86.8651 57.7062 88.2795 59.1269C89.7008 60.5584 89.7008 62.8684 88.2795 64.2892C86.8651 65.7173 84.5679 65.7173 83.1536 64.2892ZM94.9412 70.9953C93.5198 72.4197 91.2299 72.4197 89.8083 70.9953C88.394 69.5675 88.394 67.2575 89.8083 65.8367C91.2299 64.4086 93.5198 64.4086 94.9412 65.8367C96.3485 67.2574 96.3485 69.5675 94.9412 70.9953ZM101.833 64.0434C100.419 65.4752 98.1217 65.4752 96.7144 64.0434C95.293 62.6226 95.293 60.3126 96.7144 58.8845C98.1217 57.4637 100.426 57.4637 101.833 58.8845C103.255 60.3126 103.255 62.6226 101.833 64.0434ZM51.4444 55.2188C47.4242 55.2262 44.1721 58.505 44.165 62.5576C44.1721 66.5992 47.4242 69.8783 51.4444 69.8857C55.4646 69.8783 58.7166 66.5992 58.7166 62.5576C58.7165 58.505 55.4646 55.2262 51.4444 55.2188Z"
                    fill="url(#paint1_linear_313_38)" />
            </g>
        </g>
    </g>
    <defs>
        <filter id="filter0_d_313_38" x="15" y="38.3334" width="109.818" height="83.3334" filterUnits="userSpaceOnUse"
            color-interpolation-filters="sRGB">
            <feFlood flood-opacity="0" result="BackgroundImageFix" />
            <feColorMatrix in="SourceAlpha" type="matrix" values="0 0 0 0 0 0 0 0 0 0 0 0 0 0 0 0 0 0 127 0"
                result="hardAlpha" />
            <feOffset dy="10" />
            <feGaussianBlur stdDeviation="5" />
            <feComposite in2="hardAlpha" operator="out" />
            <feColorMatrix type="matrix" values="0 0 0 0 0.318627 0 0 0 0 0 0 0 0 0 0.764706 0 0 0 0.1 0" />
            <feBlend mode="normal" in2="BackgroundImageFix" result="effect1_dropShadow_313_38" />
            <feBlend mode="normal" in="SourceGraphic" in2="effect1_dropShadow_313_38" result="shape" />
        </filter>
        <linearGradient id="paint0_linear_313_38" x1="70" y1="0" x2="70" y2="140" gradientUnits="userSpaceOnUse">
            <stop stop-color="#A66FFF" />
            <stop offset="1" stop-color="#CC8EF8" />
        </linearGradient>
        <linearGradient id="paint1_linear_313_38" x1="25" y1="38.3334" x2="84.6553" y2="122.935"
            gradientUnits="userSpaceOnUse">
            <stop stop-color="white" />
            <stop offset="0.5" stop-color="white" />
            <stop offset="1" stop-color="white" stop-opacity="0" />
        </linearGradient>
        <clipPath id="clip0_313_38">
            <rect width="140" height="140" fill="white" />
        </clipPath>
        <clipPath id="clip1_313_38">
            <rect width="100" height="100" fill="white" transform="translate(20 20)" />
        </clipPath>
    </defs>
</svg>
